<svg width="55" height="55" viewBox="0 0 55 55" fill="none" xmlns="http://www.w3.org/2000/svg">
<path fill-rule="evenodd" clip-rule="evenodd" d="M8.92962 40.9299L27.3645 46.9477C27.5226 46.9994 27.6377 47 27.8017 47C27.965 47 28.0807 47 28.2383 46.9483L46.683 40.863L46.6859 40.8618C47.2464 40.6938 47.6027 40.1287 47.6027 39.5561V15.4104C47.6027 14.8115 47.2219 14.3255 46.6789 14.1034L28.2313 8.08095L28.2243 8.07804C27.9313 7.9606 27.6586 7.98677 27.3639 8.08327L8.91683 14.1057C8.35638 14.2738 8 14.8389 8 15.4115V39.6206C8 40.2217 8.38371 40.7089 8.92962 40.9304V40.9299ZM26.1814 43.7112L10.7191 38.6427V17.2568L17.2532 19.3666V31.3813C17.2532 32.1441 17.8497 32.7406 18.6124 32.7406C19.3752 32.7406 19.9717 32.1441 19.9717 31.3813V20.2986L26.5058 22.4084V43.7112L26.1808 43.7106L26.1814 43.7112ZM25.5285 14.547L18.6793 17.0434L13.7068 15.4109L27.8011 10.8018L41.8971 15.4115L27.8022 20.0207L22.7914 18.3998L26.4564 17.1016C27.1517 16.8341 27.5499 16.0801 27.2749 15.365C27.0023 14.6569 26.2413 14.3302 25.5279 14.547H25.5285ZM44.8848 38.6433L38.3507 40.7531V33.5999C38.3507 32.8371 37.7542 32.2406 36.9915 32.2406C36.22 32.2406 35.6956 32.8464 35.6956 33.5999V41.6856L29.1615 43.7955V22.4095L44.8848 17.2556V38.6433Z" fill="#B62427"/>
</svg>
