<svg width="55" height="55" viewBox="0 0 55 55" fill="none" xmlns="http://www.w3.org/2000/svg">
<path d="M23.7468 29.6896C23.9473 30.0373 24.3114 30.2313 24.6864 30.2313C24.8706 30.2313 25.0559 30.1855 25.2271 30.0863L26.4163 29.3996V30.7731C26.4163 31.3715 26.9014 31.8566 27.4998 31.8566C28.0983 31.8566 28.5833 31.3715 28.5833 30.7731V29.3996L29.7726 30.0863C29.9437 30.1855 30.1301 30.2313 30.3133 30.2313C30.6882 30.2313 31.0523 30.0373 31.2529 29.6896C31.5516 29.1718 31.375 28.509 30.8561 28.2093L29.6668 27.5225L30.8561 26.8358C31.375 26.5371 31.5516 25.8733 31.2529 25.3555C30.9542 24.8377 30.2915 24.659 29.7726 24.9587L28.5833 25.6455V24.272C28.5833 23.6736 28.0983 23.1885 27.4998 23.1885C26.9014 23.1885 26.4163 23.6736 26.4163 24.272V25.6455L25.2271 24.9587C24.7082 24.659 24.0454 24.8377 23.7468 25.3555C23.4481 25.8733 23.6247 26.536 24.1435 26.8358L25.3328 27.5225L24.1435 28.2093C23.6247 28.5079 23.447 29.1718 23.7468 29.6896Z" fill="#B62427"/>
<path d="M12.9138 29.6896C13.1143 30.0373 13.4784 30.2313 13.8534 30.2313C14.0376 30.2313 14.2229 30.1855 14.394 30.0863L15.5833 29.3996V30.7731C15.5833 31.3715 16.0684 31.8566 16.6668 31.8566C17.2653 31.8566 17.7503 31.3715 17.7503 30.7731V29.3996L18.9396 30.0863C19.1107 30.1855 19.2971 30.2313 19.4802 30.2313C19.8552 30.2313 20.2193 30.0373 20.4199 29.6896C20.7185 29.1718 20.542 28.509 20.0231 28.2093L18.8338 27.5225L20.0231 26.8358C20.542 26.5371 20.7185 25.8733 20.4199 25.3555C20.1212 24.8377 19.4574 24.659 18.9396 24.9587L17.7503 25.6455V24.272C17.7503 23.6736 17.2653 23.1885 16.6668 23.1885C16.0684 23.1885 15.5833 23.6736 15.5833 24.272V25.6455L14.394 24.9587C13.8752 24.659 13.2124 24.8377 12.9138 25.3555C12.6151 25.8733 12.7917 26.536 13.3105 26.8358L14.4998 27.5225L13.3105 28.2093C12.7917 28.5079 12.614 29.1718 12.9138 29.6896Z" fill="#B62427"/>
<path d="M34.5812 29.6896C34.7818 30.0373 35.1459 30.2313 35.5209 30.2313C35.7051 30.2313 35.8904 30.1855 36.0615 30.0863L37.2508 29.3996V30.7731C37.2508 31.3715 37.7359 31.8566 38.3343 31.8566C38.9327 31.8566 39.4178 31.3715 39.4178 30.7731V29.3996L40.6071 30.0863C40.7782 30.1855 40.9646 30.2313 41.1477 30.2313C41.5227 30.2313 41.8868 30.0373 42.0874 29.6896C42.386 29.1718 42.2094 28.509 41.6906 28.2093L40.5013 27.5225L41.6906 26.8358C42.2094 26.5371 42.386 25.8733 42.0874 25.3555C41.7887 24.8377 41.1248 24.659 40.6071 24.9587L39.4178 25.6455V24.272C39.4178 23.6736 38.9327 23.1885 38.3343 23.1885C37.7359 23.1885 37.2508 23.6736 37.2508 24.272V25.6455L36.0615 24.9587C35.5427 24.659 34.8799 24.8377 34.5812 25.3555C34.2826 25.8733 34.4591 26.536 34.978 26.8358L36.1673 27.5225L34.978 28.2093C34.4591 28.5079 34.2815 29.1718 34.5812 29.6896Z" fill="#B62427"/>
<path d="M27.5 8.02289C23.1202 8.02289 18.9627 9.46176 15.5606 12.1084V9.08352C15.5606 8.48507 15.0755 8 14.4771 8C13.8787 8 13.3936 8.48507 13.3936 9.08352V14.5C13.3936 14.5251 13.399 14.5491 13.4001 14.573C13.4023 14.609 13.4045 14.6439 13.4099 14.6788C13.4121 14.6897 13.4121 14.7017 13.4143 14.7115C13.4187 14.7365 13.4285 14.7594 13.435 14.7834C13.4437 14.815 13.4525 14.8477 13.4634 14.8782C13.4677 14.8902 13.471 14.9022 13.4753 14.9142C13.4852 14.9382 13.4993 14.96 13.5113 14.9829C13.5255 15.0123 13.5397 15.0407 13.5571 15.0679C13.5636 15.0788 13.568 15.0897 13.5756 15.1006C13.5887 15.1213 13.6062 15.1377 13.6203 15.1573C13.641 15.1856 13.6628 15.2118 13.6868 15.238C13.7097 15.263 13.7348 15.2848 13.7609 15.3077C13.7882 15.3317 13.8144 15.3546 13.8438 15.3753C13.8547 15.384 13.8645 15.3928 13.8765 15.4015C13.895 15.4146 13.9168 15.4222 13.9364 15.4342C13.9648 15.4505 13.9931 15.4669 14.0236 15.481C14.0367 15.4876 14.0498 15.4952 14.0629 15.5007C14.088 15.5105 14.1141 15.5159 14.1392 15.5247C14.1588 15.5312 14.1773 15.541 14.197 15.5465L19.4292 16.9483C19.523 16.9733 19.6167 16.9853 19.7105 16.9853C20.189 16.9853 20.6272 16.6659 20.7569 16.182C20.9117 15.6042 20.5694 15.0101 19.9906 14.8543L16.6943 13.9713C19.7541 11.522 23.5235 10.1877 27.5011 10.1877C37.0587 10.1877 44.8352 17.9642 44.8352 27.5218C44.8352 37.0794 37.0587 44.8559 27.5011 44.8559C17.9435 44.8559 10.167 37.0794 10.167 27.5218C10.167 26.9234 9.68196 26.4383 9.08351 26.4383C8.48507 26.4383 8 26.9234 8 27.5218C8 38.2741 16.7477 47.0218 27.5 47.0218C38.2523 47.0218 47 38.2741 47 27.5218C47 16.7695 38.2523 8.0218 27.5 8.0218V8.02289Z" fill="#B62427"/>
</svg>
