<?xml version="1.0" encoding="UTF-8"?>
<!DOCTYPE svg PUBLIC "-//W3C//DTD SVG 1.1//EN" "http://www.w3.org/Graphics/SVG/1.1/DTD/svg11.dtd">
<!-- Creator: CorelDRAW -->
<svg xmlns="http://www.w3.org/2000/svg" xml:space="preserve" width="4820px" height="1917px" version="1.1" shape-rendering="geometricPrecision" text-rendering="geometricPrecision" image-rendering="optimizeQuality" fill-rule="evenodd" clip-rule="evenodd"
viewBox="0 0 3000.28 1193.37"
 xmlns:xlink="http://www.w3.org/1999/xlink"
 xmlns:xodm="http://www.corel.com/coreldraw/odm/2003">
 <g id="Layer_x0020_1">
  <metadata id="CorelCorpID_0Corel-Layer"/>
  <g id="_2813767164816">
   <path fill="#B72025" d="M1803.31 106.38c57.24,-7.16 101.47,3.22 127.44,39.03 33.85,46.66 21.17,81.62 2.14,130.62 -31.51,81.19 -62.85,164.93 -92.45,247.33 -14.88,41.43 -79.51,217.31 -93.52,246.24 -33.26,68.65 -101.94,127.16 -198.57,138.17 -63,7.17 -103.02,-4.2 -129.28,-40.6 -33.11,-45.89 -20.39,-80.67 -1.55,-128.76 46.69,-119.21 94.06,-250.55 139.09,-371.91 42.87,-115.55 73.25,-238.4 246.7,-260.12zm410.06 192.76c28.31,-135.18 -74.14,-276.82 -222.97,-296.29 -37.32,-4.88 -90.73,-2.01 -130.36,-2.01 -126.1,0 -211.43,-2.77 -331.5,60.21 -58.67,30.77 -115.13,73.73 -149.73,112.12 -113.07,125.44 -205.93,368.49 -241.75,541.88 -27.82,134.66 73.29,275.17 221.16,295.98 26.92,3.79 228.99,3.5 260.47,0.83 172.44,-14.58 319.66,-108.76 410.75,-245.14 74.76,-111.95 154.68,-327.85 183.93,-467.58z"/>
   <path fill="#B72025" d="M2176.46 1013.79c22.03,-0.05 24.58,-7.96 40.89,-33.16 147.72,-220.06 295.43,-440.13 443.15,-660.19 3.4,41.41 24.57,276.15 21.98,297.71 -28.24,11.53 -69.93,8.34 -139.26,42.56 -42.5,20.98 -76.76,48.17 -104.99,74.03 -27.19,24.91 -54.97,66.05 -78.92,102.63 -14.69,22.44 -62.91,90.04 -71.41,107.33 28.33,-8.28 69.01,-27.76 97.51,-39.78 70.47,-29.72 241.93,-102.71 312.36,-92.45 9.09,27.96 10.87,124.16 14.25,164.46 3.48,41.59 -1.9,36.92 19.47,36.89 89.6,-0.02 179.19,-0.03 268.79,-0.04 -25.96,-337.5 -51.92,-675 -77.88,-1012.49 -48.08,-0.14 -96.15,-0.28 -144.23,-0.43 -91.51,0.03 -92.41,32.76 -139.56,99.13l-611.22 913.8 149.07 0z"/>
   <path fill="#B72025" d="M685.04 0.85l-303.34 0.57 -372.35 1012.35 301.53 0.02 129.85 -348.47c7.89,-21.17 7.52,-34.42 26.92,-49.42l730.6 -560.97 68.78 -54.09 -205.89 0c-14.24,0 -26.47,4.14 -37.78,12.78l-476.37 363.79 138.05 -376.56z"/>
   <path fill="white" d="M1803.31 106.38c-173.45,21.72 -203.83,144.57 -246.7,260.12 -45.03,121.36 -92.4,252.7 -139.09,371.91 -18.84,48.09 -31.56,82.87 1.55,128.76 26.26,36.4 66.28,47.77 129.28,40.6 96.63,-11.01 165.31,-69.52 198.57,-138.17 14.01,-28.93 78.64,-204.81 93.52,-246.24 29.6,-82.4 60.94,-166.14 92.45,-247.33 19.03,-49 31.71,-83.96 -2.14,-130.62 -25.97,-35.81 -70.2,-46.19 -127.44,-39.03z"/>
   <path fill="#B72025" d="M554.73 609.84c2.38,11.63 146.87,288.02 157.14,308.39 35.07,69.54 43.07,94.81 139.27,94.8 75.23,-0.01 156.35,2.9 230.85,-0.36l-148.74 -289.89c-35.04,-69.25 -78.3,-148.27 -111.02,-215.68 -6.29,-12.95 -12.11,-23.39 -18.66,-35.87l-18.56 -33.89c-0.18,-0.92 -0.84,-1.03 -1.31,-1.51l-228.97 174.01z"/>
  </g>
  <path fill="#373435" fill-rule="nonzero" d="M40.07 1093.21c-28.91,0 -40.07,10.3 -40.07,37.77l0 24.61c0,27.48 11.16,37.78 40.07,37.78l62.96 0c2.14,0 3.29,-1 3.29,-3.15l0 -13.59c0,-2.15 -1.15,-3.15 -3.29,-3.15l-62.53 0c-14.89,0 -19.04,-4.44 -19.04,-19.46l0 -2.43 80.85 0c2.15,0 3.15,-1 3.15,-3.15l0 -11.31c0,-2.14 -1,-3.14 -3.15,-3.14l-80.85 0 0 -1.43c0,-15.03 4.15,-19.46 19.04,-19.46l62.53 0c2.14,0 3.29,-1.01 3.29,-3.15l0 -13.6c0,-2.14 -1.15,-3.14 -3.29,-3.14l-62.96 0z"/>
  <path id="_1" fill="#373435" fill-rule="nonzero" d="M125.78 1093.21c-2.15,0 -3.29,1 -3.29,3.14l0 59.24c0,27.48 11.16,37.78 40.06,37.78l58.81 0c2.15,0 3.15,-1 3.15,-3.15l0 -14.02c0,-2.15 -1,-3.15 -3.15,-3.15l-57.95 0c-14.74,0 -19.03,-4.43 -19.03,-19.6l0 -57.1c0,-2.14 -1,-3.14 -3.15,-3.14l-15.45 0z"/>
  <path id="_2" fill="#373435" fill-rule="nonzero" d="M276.31 1093.21c-28.9,0 -40.06,10.3 -40.06,37.77l0 24.61c0,27.48 11.16,37.78 40.06,37.78l62.96 0c2.15,0 3.29,-1 3.29,-3.15l0 -13.59c0,-2.15 -1.14,-3.15 -3.29,-3.15l-62.53 0c-14.88,0 -19.03,-4.44 -19.03,-19.46l0 -2.43 80.85 0c2.14,0 3.14,-1 3.14,-3.15l0 -11.31c0,-2.14 -1,-3.14 -3.14,-3.14l-80.85 0 0 -1.43c0,-15.03 4.15,-19.46 19.03,-19.46l62.53 0c2.15,0 3.29,-1.01 3.29,-3.15l0 -13.6c0,-2.14 -1.14,-3.14 -3.29,-3.14l-62.96 0z"/>
  <path id="_3" fill="#373435" fill-rule="nonzero" d="M397.94 1093.21c-28.91,0 -40.07,10.3 -40.07,37.77l0 24.61c0,27.48 11.16,37.78 40.07,37.78l64.53 0c2.15,0 3.15,-1 3.15,-3.15l0 -14.02c0,-2.15 -1,-3.15 -3.15,-3.15l-63.67 0c-14.74,0 -19.03,-4.43 -19.03,-19.6l0 -20.32c0,-15.17 4.29,-19.46 19.03,-19.46l63.67 0c2.15,0 3.15,-1.15 3.15,-3.29l0 -14.03c0,-2.14 -1,-3.14 -3.15,-3.14l-64.53 0z"/>
  <path id="_4" fill="#373435" fill-rule="nonzero" d="M478.07 1093.21c-2.15,0 -3.29,1 -3.29,3.14l0 14.03c0,2.14 1.14,3.29 3.29,3.29l44.93 0 0 76.55c0,2.15 1,3.15 3.15,3.15l15.6 0c2.14,0 3.15,-1 3.15,-3.15l0 -76.55 44.93 0c2.14,0 3.29,-1.15 3.29,-3.29l0 -14.03c0,-2.14 -1.15,-3.14 -3.29,-3.14l-111.76 0z"/>
  <path id="_5" fill="#373435" fill-rule="nonzero" d="M610.15 1093.21c-2.87,0 -4.3,1.43 -4.3,4.29l0 92.72c0,2.15 1.15,3.15 3.29,3.15l15.46 0c2.14,0 3.15,-1 3.15,-3.15l0 -28.47 46.21 0 22.61 29.76c0.86,1.29 1.58,1.86 4.01,1.86l18.46 0c2.57,0 2.72,-2.57 1.86,-3.58l-24.47 -30.33c15.03,-2.72 21.32,-12.31 21.32,-28.62l0 -8.16c0,-19.31 -8.87,-29.47 -30.76,-29.47l-76.84 0zm17.6 21.32c0,-1.15 0.57,-1.72 1.86,-1.72l52.94 0c9.73,0 13.31,4.15 13.31,12.73l0 6.01c0,8.59 -3.58,12.74 -13.31,12.74l-54.8 0 0 -29.76z"/>
  <path id="_6" fill="#373435" fill-rule="nonzero" d="M771.7 1093.21c-28.91,0 -40.07,10.3 -40.07,37.77l0 24.61c0,27.48 11.16,37.78 40.07,37.78l44.21 0c29.05,0 40.07,-10.3 40.07,-37.78l0 -24.61c0,-27.47 -11.02,-37.77 -40.07,-37.77l-44.21 0zm-18.18 39.35c0,-15.03 4.3,-19.46 19.04,-19.46l42.49 0c14.74,0 19.03,4.43 19.03,19.46l0 21.46c0,15.02 -4.29,19.46 -19.03,19.46l-42.49 0c-14.74,0 -19.04,-4.44 -19.04,-19.46l0 -21.46z"/>
  <path id="_7" fill="#373435" fill-rule="nonzero" d="M886.6 1093.21c-8.73,0 -12.88,3.29 -12.88,14.88l0 82.13c0,2.15 1.15,3.15 3.29,3.15l15.03 0c2.14,0 3.15,-1 3.15,-3.15l0 -74.69c0,-1 0.28,-1.43 1.14,-1.43l1.29 0c0.86,0 1.29,0.28 1.86,1l53.37 69.83c5.73,7.58 7.87,8.44 16.6,8.44l12.31 0c8.72,0 12.88,-3.29 12.88,-14.88l0 -82.14c0,-2.14 -1.01,-3.14 -3.15,-3.14l-15.03 0c-2.14,0 -3.15,1 -3.15,3.14l0 74.7c0,1 -0.43,1.43 -1.14,1.43l-1.29 0c-0.86,0 -1.43,-0.29 -1.86,-1l-53.23 -69.83c-5.44,-7.3 -7.44,-8.44 -16.6,-8.44l-12.59 0z"/>
  <path id="_8" fill="#373435" fill-rule="nonzero" d="M1016.96 1093.21c-2.15,0 -3.29,1 -3.29,3.14l0 93.87c0,2.15 1.14,3.15 3.29,3.15l15.45 0c2.15,0 3.15,-1 3.15,-3.15l0 -93.87c0,-2.14 -1,-3.14 -3.15,-3.14l-15.45 0z"/>
  <path id="_9" fill="#373435" fill-rule="nonzero" d="M1093.51 1093.21c-28.9,0 -40.06,10.3 -40.06,37.77l0 24.61c0,27.48 11.16,37.78 40.06,37.78l64.54 0c2.14,0 3.14,-1 3.14,-3.15l0 -14.02c0,-2.15 -1,-3.15 -3.14,-3.15l-63.68 0c-14.74,0 -19.03,-4.43 -19.03,-19.6l0 -20.32c0,-15.17 4.29,-19.46 19.03,-19.46l63.68 0c2.14,0 3.14,-1.15 3.14,-3.29l0 -14.03c0,-2.14 -1,-3.14 -3.14,-3.14l-64.54 0z"/>
  <path id="_10" fill="#373435" fill-rule="nonzero" d="M1200.12 1093.21c-17.32,0 -25.33,9.44 -25.33,23.32l0 10.45c0,15.74 8.58,24.61 25.04,24.61l53.66 0c5.01,0 7.44,2.72 7.44,8.01l0 5.87c0,5.01 -2.15,8.01 -7.58,8.01l-75.13 0c-2.14,0 -3.29,1 -3.29,3.15l0 13.59c0,2.15 1.15,3.15 3.29,3.15l79.28 0c17.31,0 25.32,-9.44 25.32,-23.32l0 -11.45c0,-15.74 -8.58,-24.61 -25.04,-24.61l-53.66 0c-5.01,0 -7.44,-2.72 -7.44,-8.02l0 -4.86c0,-5.01 2.15,-8.01 7.59,-8.01l71.68 0c2.15,0 3.15,-1.01 3.15,-3.15l0 -13.6c0,-2.14 -1,-3.14 -3.15,-3.14l-75.83 0z"/>
  <path id="_11" fill="#373435" fill-rule="nonzero" d="M1351.36 1093.21c-2.86,0 -4.29,1.43 -4.29,4.29l0 91.58c0,2.86 1.43,4.29 4.29,4.29l66.97 0c31.05,0 43.79,-12.45 43.79,-40.35l0 -19.46c0,-27.91 -12.74,-40.35 -43.79,-40.35l-66.97 0zm17.6 21.89c0,-1.43 0.58,-2 1.86,-2l46.94 0c16.88,0 22.46,5.43 22.46,22.32l0 15.74c0,16.88 -5.58,22.32 -22.46,22.32l-46.94 0c-1.28,0 -1.86,-0.57 -1.86,-1.86l0 -56.52z"/>
  <path id="_12" fill="#373435" fill-rule="nonzero" d="M1483.29 1093.21c-2.14,0 -3.29,1 -3.29,3.14l0 93.87c0,2.15 1.15,3.15 3.29,3.15l15.46 0c2.14,0 3.15,-1 3.15,-3.15l0 -93.87c0,-2.14 -1.01,-3.14 -3.15,-3.14l-15.46 0z"/>
  <path id="_13" fill="#373435" fill-rule="nonzero" d="M1544.54 1093.21c-17.32,0 -25.33,9.44 -25.33,23.32l0 10.45c0,15.74 8.59,24.61 25.04,24.61l53.66 0c5.01,0 7.44,2.72 7.44,8.01l0 5.87c0,5.01 -2.14,8.01 -7.58,8.01l-75.13 0c-2.14,0 -3.29,1 -3.29,3.15l0 13.59c0,2.15 1.15,3.15 3.29,3.15l79.28 0c17.31,0 25.33,-9.44 25.33,-23.32l0 -11.45c0,-15.74 -8.59,-24.61 -25.05,-24.61l-53.66 0c-5,0 -7.44,-2.72 -7.44,-8.02l0 -4.86c0,-5.01 2.15,-8.01 7.59,-8.01l71.69 0c2.14,0 3.15,-1.01 3.15,-3.15l0 -13.6c0,-2.14 -1.01,-3.14 -3.15,-3.14l-75.84 0z"/>
  <path id="_14" fill="#373435" fill-rule="nonzero" d="M1640.7 1093.21c-2.15,0 -3.3,1 -3.3,3.14l0 14.03c0,2.14 1.15,3.29 3.3,3.29l44.93 0 0 76.55c0,2.15 1,3.15 3.14,3.15l15.6 0c2.15,0 3.15,-1 3.15,-3.15l0 -76.55 44.93 0c2.15,0 3.29,-1.15 3.29,-3.29l0 -14.03c0,-2.14 -1.14,-3.14 -3.29,-3.14l-111.75 0z"/>
  <path id="_15" fill="#373435" fill-rule="nonzero" d="M1772.77 1093.21c-2.86,0 -4.29,1.43 -4.29,4.29l0 92.72c0,2.15 1.14,3.15 3.29,3.15l15.45 0c2.15,0 3.15,-1 3.15,-3.15l0 -28.47 46.22 0 22.61 29.76c0.86,1.29 1.57,1.86 4,1.86l18.46 0c2.58,0 2.72,-2.57 1.86,-3.58l-24.47 -30.33c15.03,-2.72 21.33,-12.31 21.33,-28.62l0 -8.16c0,-19.31 -8.88,-29.47 -30.77,-29.47l-76.84 0zm17.6 21.32c0,-1.15 0.57,-1.72 1.86,-1.72l52.95 0c9.73,0 13.3,4.15 13.3,12.73l0 6.01c0,8.59 -3.57,12.74 -13.3,12.74l-54.81 0 0 -29.76z"/>
  <path id="_16" fill="#373435" fill-rule="nonzero" d="M1901.27 1093.21c-2.15,0 -3.29,1 -3.29,3.14l0 93.87c0,2.15 1.14,3.15 3.29,3.15l15.45 0c2.15,0 3.15,-1 3.15,-3.15l0 -93.87c0,-2.14 -1,-3.14 -3.15,-3.14l-15.45 0z"/>
  <path id="_17" fill="#373435" fill-rule="nonzero" d="M1943.19 1093.21c-2.86,0 -4.29,1.43 -4.29,4.29l0 91.58c0,2.86 1.43,4.29 4.29,4.29l85 0c19.03,0 25.33,-9.59 25.33,-24.75l0 -8.3c0,-8.45 -3.15,-14.6 -9.88,-18.46 6.01,-4.01 9.16,-10.02 9.16,-18.18l0 -6.86c0,-15.89 -7.44,-23.61 -27.19,-23.61l-82.42 0zm76.27 57.23c9.45,0 12.45,3.15 12.45,9.02l0 5.43c0,6.02 -3,8.73 -10.59,8.73l-58.67 0c-1.28,0 -1.86,-0.57 -1.86,-1.86l0 -21.32 58.67 0zm-58.67 -35.63c0,-1.29 0.58,-1.86 1.86,-1.86l58.53 0c7.44,0 10.59,2.72 10.59,8.59l0 4.86c0,5.58 -2.86,8.45 -12.31,8.45l-58.67 0 0 -20.04z"/>
  <path id="_18" fill="#373435" fill-rule="nonzero" d="M2073.41 1093.21c-2.15,0 -3.29,1 -3.29,3.14l0 59.24c0,27.48 11.16,37.78 40.06,37.78l41.21 0c29.05,0 40.07,-10.3 40.07,-37.78l0 -59.24c0,-2.14 -1,-3.14 -3.15,-3.14l-15.6 0c-2.14,0 -3.14,1 -3.14,3.14l0 57.1c0,15.17 -4.15,19.6 -18.89,19.6l-39.64 0c-14.74,0 -19.03,-4.43 -19.03,-19.6l0 -57.1c0,-2.14 -1,-3.14 -3.15,-3.14l-15.45 0z"/>
  <path id="_19" fill="#373435" fill-rule="nonzero" d="M2207.34 1093.21c-2.14,0 -3.29,1 -3.29,3.14l0 14.03c0,2.14 1.15,3.29 3.29,3.29l44.93 0 0 76.55c0,2.15 1,3.15 3.15,3.15l15.6 0c2.14,0 3.15,-1 3.15,-3.15l0 -76.55 44.93 0c2.14,0 3.29,-1.15 3.29,-3.29l0 -14.03c0,-2.14 -1.15,-3.14 -3.29,-3.14l-111.76 0z"/>
  <path id="_20" fill="#373435" fill-rule="nonzero" d="M2338.41 1093.21c-2.14,0 -3.29,1 -3.29,3.14l0 93.87c0,2.15 1.15,3.15 3.29,3.15l15.46 0c2.14,0 3.15,-1 3.15,-3.15l0 -93.87c0,-2.14 -1.01,-3.14 -3.15,-3.14l-15.46 0z"/>
  <path id="_21" fill="#373435" fill-rule="nonzero" d="M2414.97 1093.21c-28.91,0 -40.07,10.3 -40.07,37.77l0 24.61c0,27.48 11.16,37.78 40.07,37.78l44.21 0c29.05,0 40.07,-10.3 40.07,-37.78l0 -24.61c0,-27.47 -11.02,-37.77 -40.07,-37.77l-44.21 0zm-18.17 39.35c0,-15.03 4.29,-19.46 19.03,-19.46l42.5 0c14.73,0 19.03,4.43 19.03,19.46l0 21.46c0,15.02 -4.3,19.46 -19.03,19.46l-42.5 0c-14.74,0 -19.03,-4.44 -19.03,-19.46l0 -21.46z"/>
  <path id="_22" fill="#373435" fill-rule="nonzero" d="M2529.87 1093.21c-8.73,0 -12.88,3.29 -12.88,14.88l0 82.13c0,2.15 1.15,3.15 3.3,3.15l15.02 0c2.15,0 3.15,-1 3.15,-3.15l0 -74.69c0,-1 0.28,-1.43 1.14,-1.43l1.29 0c0.86,0 1.29,0.28 1.86,1l53.37 69.83c5.73,7.58 7.87,8.44 16.6,8.44l12.31 0c8.73,0 12.88,-3.29 12.88,-14.88l0 -82.14c0,-2.14 -1,-3.14 -3.15,-3.14l-15.03 0c-2.14,0 -3.14,1 -3.14,3.14l0 74.7c0,1 -0.43,1.43 -1.15,1.43l-1.29 0c-0.85,0 -1.43,-0.29 -1.86,-1l-53.23 -69.83c-5.43,-7.3 -7.44,-8.44 -16.6,-8.44l-12.59 0z"/>
  <path id="_23" fill="#373435" fill-rule="nonzero" d="M2708.17 1093.21c-2.15,0 -3.3,1 -3.3,3.14l0 93.87c0,2.15 1.15,3.15 3.3,3.15l15.45 0c2.15,0 3.15,-1 3.15,-3.15l0 -93.87c0,-2.14 -1,-3.14 -3.15,-3.14l-15.45 0z"/>
  <path id="_24" fill="#373435" fill-rule="nonzero" d="M2758.68 1093.21c-8.73,0 -12.88,3.29 -12.88,14.88l0 82.13c0,2.15 1.14,3.15 3.29,3.15l15.02 0c2.15,0 3.15,-1 3.15,-3.15l0 -74.69c0,-1 0.29,-1.43 1.15,-1.43l1.28 0c0.86,0 1.29,0.28 1.87,1l53.37 69.83c5.72,7.58 7.87,8.44 16.6,8.44l12.3 0c8.73,0 12.88,-3.29 12.88,-14.88l0 -82.14c0,-2.14 -1,-3.14 -3.15,-3.14l-15.02 0c-2.15,0 -3.15,1 -3.15,3.14l0 74.7c0,1 -0.43,1.43 -1.14,1.43l-1.29 0c-0.86,0 -1.43,-0.29 -1.86,-1l-53.23 -69.83c-5.44,-7.3 -7.44,-8.44 -16.6,-8.44l-12.59 0z"/>
  <path id="_25" fill="#373435" fill-rule="nonzero" d="M2924.66 1093.21c-28.9,0 -40.06,10.3 -40.06,37.77l0 24.61c0,27.48 11.16,37.78 40.06,37.78l64.54 0c2.15,0 3.15,-1 3.15,-3.15l0 -14.02c0,-2.15 -1,-3.15 -3.15,-3.15l-63.68 0c-14.74,0 -19.03,-4.43 -19.03,-19.6l0 -20.32c0,-15.17 4.29,-19.46 19.03,-19.46l63.68 0c2.15,0 3.15,-1.15 3.15,-3.29l0 -14.03c0,-2.14 -1,-3.14 -3.15,-3.14l-64.54 0z"/>
 </g>
</svg>
