<svg width="55" height="55" viewBox="0 0 55 55" fill="none" xmlns="http://www.w3.org/2000/svg">
<path d="M11.1136 19.248H44.8608C45.4759 19.248 45.9744 19.7466 45.9744 20.3616V45.887C45.9744 46.502 45.4759 47.0006 44.8608 47.0006H11.1136C10.4985 47.0006 10 46.502 10 45.887V20.3616C10 19.7466 10.4985 19.248 11.1136 19.248ZM43.7472 21.4752H12.227V44.7734H43.7472V21.4752Z" fill="#B62427"/>
<path d="M39.3684 10.2272H16.6089L12.7911 19.2491H43.1863L39.3686 10.2272H39.3684ZM15.8757 8H40.1018V8.00418C40.5344 8.00438 40.9455 8.2593 41.124 8.6831L45.8443 19.8382C45.9278 19.9946 45.9754 20.1731 45.9754 20.3627C45.9754 20.9777 45.4769 21.4763 44.8619 21.4763H11.1155V21.4721C10.9718 21.4721 10.8257 21.4441 10.6848 21.3848C10.1203 21.147 9.85533 20.4965 10.0931 19.932L14.8149 8.77413C14.9586 8.32506 15.379 8 15.8757 8Z" fill="#B62427"/>
<path d="M29.1007 19.9282C29.1007 20.5433 28.6022 21.0418 27.9871 21.0418C27.3721 21.0418 26.8735 20.5433 26.8735 19.9282V9.11359C26.8735 8.49855 27.3721 8 27.9871 8C28.6022 8 29.1007 8.49855 29.1007 9.11359V19.9282Z" fill="#B62427"/>
<path d="M29.1007 38.7016C29.1007 39.3166 28.6022 39.8151 27.9871 39.8151C27.3721 39.8151 26.8735 39.3166 26.8735 38.7016V27.5521C26.8735 26.937 27.3721 26.4385 27.9871 26.4385C28.6022 26.4385 29.1007 26.937 29.1007 27.5521V38.7016Z" fill="#B62427"/>
<path d="M24.1488 32.9529C23.7139 33.3852 23.011 33.3833 22.5784 32.9485C22.146 32.5136 22.1479 31.8107 22.5828 31.3781L27.2038 26.7615C27.6372 26.3306 28.337 26.331 28.7695 26.7615L33.3901 31.3781C33.825 31.8105 33.8268 32.5136 33.3945 32.9485C32.9621 33.3833 32.259 33.3852 31.8241 32.9529L27.9864 29.1185L24.1486 32.9529H24.1488Z" fill="#B62427"/>
</svg>
