<svg width="55" height="55" viewBox="0 0 55 55" fill="none" xmlns="http://www.w3.org/2000/svg">
<path d="M50.9764 25.612C48.665 22.9906 47.7314 20.8702 47.1232 19.142C46.549 17.5094 45.0005 16.4128 43.2708 16.4128H35.1433V15.1503C35.1433 12.8618 33.2817 11 30.9933 11H7.15027C4.86183 11 3 12.8615 3 15.1503V33.7054C3 35.9938 4.86212 37.8557 7.15027 37.8557H7.40767C7.90868 40.8876 10.5476 43.2082 13.7194 43.2082C16.8912 43.2082 19.5298 40.8876 20.0311 37.8557H36.2136C36.7146 40.8876 39.3536 43.2082 42.5254 43.2082C45.736 43.2082 48.4004 40.8313 48.8549 37.7451C50.6556 37.319 52 35.6991 52 33.7703V28.3155C52 27.3204 51.6369 26.36 50.977 25.612V25.6123L50.9764 25.612ZM5.09251 20.4045H20.6743C21.252 20.4045 21.7206 19.936 21.7206 19.3583V17.7139L26.6083 22.6016L21.7206 27.4893V25.845C21.7206 25.2673 21.252 24.7987 20.6743 24.7987H5.09251V20.4051V20.4045ZM13.7194 41.1148C11.3451 41.1148 9.41314 39.1829 9.41314 36.8085C9.41314 34.4342 11.3451 32.5023 13.7194 32.5023C16.0937 32.5023 18.0257 34.4342 18.0257 36.8085C18.0254 39.1829 16.0937 41.1148 13.7194 41.1148ZM33.051 35.7623H20.0308C19.5298 32.7304 16.8909 30.4098 13.7191 30.4098C10.5473 30.4098 7.9081 32.7304 7.40738 35.7623H7.14998C6.01524 35.7623 5.09223 34.8393 5.09223 33.7045V26.8901H19.6275V30.0142C19.6275 30.4376 19.8823 30.8186 20.2733 30.9809C20.4026 31.0346 20.5387 31.0604 20.6735 31.0604C20.9458 31.0604 21.2136 30.9544 21.4138 30.7539L28.8269 23.3408C29.2354 22.9323 29.2357 22.2698 28.8269 21.861L21.4138 14.4479C21.1144 14.1485 20.6646 14.0592 20.2736 14.2209C19.8826 14.3827 19.6278 14.7642 19.6278 15.1876V18.3117L5.09251 18.3114V15.1494C5.09251 14.015 6.01553 13.0917 7.15027 13.0917H30.9933C32.1277 13.0917 33.0507 14.0147 33.0507 15.1494V35.7623H33.051ZM39.5285 18.5045H43.2711C44.1149 18.5045 44.8698 19.0397 45.1499 19.836C45.7181 21.4505 46.6251 23.5772 48.6429 26.0871H42.2539C40.7514 26.0871 39.5288 24.8645 39.5288 23.362V18.5048H39.5282L39.5285 18.5045ZM42.5257 41.1145C40.1513 41.1145 38.2194 39.1826 38.2194 36.8083C38.2194 34.4339 40.1513 32.502 42.5257 32.502C44.9 32.502 46.8319 34.4339 46.8319 36.8083C46.8316 39.1826 44.9 41.1145 42.5257 41.1145ZM49.9075 33.7697C49.9075 34.5503 49.455 35.2257 48.7995 35.5526C48.214 32.6238 45.6236 30.4098 42.5251 30.4098C39.3533 30.4098 36.7141 32.7304 36.2134 35.7623H35.1433V18.5045H37.4357V23.3618C37.4357 26.0182 39.5972 28.1794 42.2533 28.1794H49.3585C49.551 28.1794 49.7302 28.1268 49.8854 28.0357C49.8983 28.1277 49.9069 28.2204 49.9069 28.3141V33.7697H49.9075Z" fill="#B62427"/>
<path d="M13.719 33.5781C11.9373 33.5781 10.4883 35.0274 10.4883 36.8088C10.4883 38.5902 11.9376 40.0395 13.719 40.0395C15.5004 40.0395 16.9497 38.5902 16.9497 36.8088C16.9497 35.0271 15.5004 33.5781 13.719 33.5781ZM13.719 37.947C13.0913 37.947 12.5808 37.4362 12.5808 36.8088C12.5808 36.1811 13.0916 35.6706 13.719 35.6706C14.3467 35.6706 14.8572 36.1814 14.8572 36.8088C14.8572 37.4365 14.3464 37.947 13.719 37.947Z" fill="#B62427"/>
<path d="M42.5251 33.5781C40.7437 33.5781 39.2944 35.0274 39.2944 36.8088C39.2944 38.5902 40.7437 40.0395 42.5251 40.0395C44.3065 40.0395 45.7558 38.5902 45.7558 36.8088C45.7558 35.0271 44.3065 33.5781 42.5251 33.5781ZM42.5251 37.947C41.8974 37.947 41.3869 37.4362 41.3869 36.8088C41.3869 36.1811 41.8977 35.6706 42.5251 35.6706C43.1528 35.6706 43.6633 36.1814 43.6633 36.8088C43.6633 37.4365 43.1525 37.947 42.5251 37.947Z" fill="#B62427"/>
</svg>
